# xmcd CD database file
#
# Track frame offsets:
#	150
#	19258
#	43516
#	62222
#	80692
#	112547
#	133372
#	156282
#	178922
#	185937
#	193308
#	202608
#	211619
#	223828
#	232465
#	241623
#
# Disc length: 3318 seconds
#
# Revision: 0
# Processed by: cddbd v1.5.1PL0 Copyright (c) Steve Scherf et al.
# Submitted via: CDex 1.51
#
DISCID=ee0cf410
DTITLE=Ｗウィッシュ - ミラクルボーカルベスト
DYEAR=2005
DGENRE=Anime
TTITLE0=KIZUNA〜絆
TTITLE1=想い出 good night
TTITLE2=GLORY DAYS
TTITLE3=日だまりの下で
TTITLE4=Without you
TTITLE5=ソーダ・恋してる
TTITLE6=Can you feel crying alone?
TTITLE7=Fly away
TTITLE8=KIZUNA〜絆 -オルゴールVer.-
TTITLE9=想い出 good night -オルゴールVer.-
TTITLE10=GLORY DAYS -オルゴールVer.-
TTITLE11=日だまりの下で -オルゴールVer.-
TTITLE12=Without you -オルゴールVer.-
TTITLE13=ソーダ・恋してる -オルゴールVer.-
TTITLE14=Can you feel crying alone? -オルゴールVer.-
TTITLE15=Fly away -オルゴールVer.-
EXTD=YEAR: 2005
EXTT0=
EXTT1=
EXTT2=
EXTT3=
EXTT4=
EXTT5=
EXTT6=
EXTT7=
EXTT8=
EXTT9=
EXTT10=
EXTT11=
EXTT12=
EXTT13=
EXTT14=
EXTT15=
PLAYORDER=
